<mxfile host="app.diagrams.net" modified="2024-04-21T10:22:48.691Z" agent="Mozilla/5.0 (Windows NT 10.0; Win64; x64) AppleWebKit/537.36 (KHTML, like Gecko) Chrome/123.0.0.0 Safari/537.36" etag="FlcxKMxUyT-WuBfxT_00" version="24.2.3" type="github">
  <diagram name="第 1 页" id="x4j8kmk1u_JYmVDHR2hA">
    <mxGraphModel dx="1050" dy="522" grid="1" gridSize="10" guides="1" tooltips="1" connect="1" arrows="1" fold="1" page="1" pageScale="1" pageWidth="827" pageHeight="1169" math="0" shadow="0">
      <root>
        <mxCell id="0" />
        <mxCell id="1" parent="0" />
        <mxCell id="uvVg4JDQQxN3Xbh5uwiV-6" style="edgeStyle=orthogonalEdgeStyle;rounded=0;orthogonalLoop=1;jettySize=auto;html=1;exitX=0.5;exitY=1;exitDx=0;exitDy=0;entryX=0.5;entryY=0;entryDx=0;entryDy=0;" edge="1" parent="1" source="uvVg4JDQQxN3Xbh5uwiV-1" target="uvVg4JDQQxN3Xbh5uwiV-3">
          <mxGeometry relative="1" as="geometry" />
        </mxCell>
        <mxCell id="uvVg4JDQQxN3Xbh5uwiV-1" value="开始" style="rounded=1;whiteSpace=wrap;html=1;" vertex="1" parent="1">
          <mxGeometry x="180" y="110" width="120" height="60" as="geometry" />
        </mxCell>
        <mxCell id="uvVg4JDQQxN3Xbh5uwiV-2" value="否" style="text;html=1;align=center;verticalAlign=middle;whiteSpace=wrap;rounded=0;" vertex="1" parent="1">
          <mxGeometry x="310" y="210" width="60" height="30" as="geometry" />
        </mxCell>
        <mxCell id="uvVg4JDQQxN3Xbh5uwiV-7" style="edgeStyle=orthogonalEdgeStyle;rounded=0;orthogonalLoop=1;jettySize=auto;html=1;exitX=0.5;exitY=1;exitDx=0;exitDy=0;" edge="1" parent="1" source="uvVg4JDQQxN3Xbh5uwiV-3" target="uvVg4JDQQxN3Xbh5uwiV-8">
          <mxGeometry relative="1" as="geometry">
            <mxPoint x="240" y="320" as="targetPoint" />
          </mxGeometry>
        </mxCell>
        <mxCell id="uvVg4JDQQxN3Xbh5uwiV-3" value="检查POST请求" style="shape=parallelogram;perimeter=parallelogramPerimeter;whiteSpace=wrap;html=1;fixedSize=1;" vertex="1" parent="1">
          <mxGeometry x="180" y="210" width="120" height="60" as="geometry" />
        </mxCell>
        <mxCell id="uvVg4JDQQxN3Xbh5uwiV-4" value="重定向试卷页面" style="rhombus;whiteSpace=wrap;html=1;" vertex="1" parent="1">
          <mxGeometry x="380" y="200" width="110" height="80" as="geometry" />
        </mxCell>
        <mxCell id="uvVg4JDQQxN3Xbh5uwiV-5" value="" style="endArrow=classic;html=1;rounded=0;exitX=1;exitY=0.5;exitDx=0;exitDy=0;entryX=0;entryY=0.5;entryDx=0;entryDy=0;" edge="1" parent="1" source="uvVg4JDQQxN3Xbh5uwiV-3" target="uvVg4JDQQxN3Xbh5uwiV-4">
          <mxGeometry width="50" height="50" relative="1" as="geometry">
            <mxPoint x="390" y="300" as="sourcePoint" />
            <mxPoint x="440" y="250" as="targetPoint" />
          </mxGeometry>
        </mxCell>
        <mxCell id="uvVg4JDQQxN3Xbh5uwiV-10" style="edgeStyle=orthogonalEdgeStyle;rounded=0;orthogonalLoop=1;jettySize=auto;html=1;exitX=0.5;exitY=1;exitDx=0;exitDy=0;" edge="1" parent="1" source="uvVg4JDQQxN3Xbh5uwiV-8" target="uvVg4JDQQxN3Xbh5uwiV-11">
          <mxGeometry relative="1" as="geometry">
            <mxPoint x="240" y="390" as="targetPoint" />
          </mxGeometry>
        </mxCell>
        <mxCell id="uvVg4JDQQxN3Xbh5uwiV-8" value="获取学生答案" style="rounded=1;whiteSpace=wrap;html=1;" vertex="1" parent="1">
          <mxGeometry x="180" y="300" width="120" height="60" as="geometry" />
        </mxCell>
        <mxCell id="uvVg4JDQQxN3Xbh5uwiV-12" style="edgeStyle=orthogonalEdgeStyle;rounded=0;orthogonalLoop=1;jettySize=auto;html=1;" edge="1" parent="1" source="uvVg4JDQQxN3Xbh5uwiV-11" target="uvVg4JDQQxN3Xbh5uwiV-13">
          <mxGeometry relative="1" as="geometry">
            <mxPoint x="240" y="490" as="targetPoint" />
          </mxGeometry>
        </mxCell>
        <mxCell id="uvVg4JDQQxN3Xbh5uwiV-11" value="获取当前登录学生&lt;div&gt;提取答卷信息&lt;/div&gt;" style="shape=parallelogram;perimeter=parallelogramPerimeter;whiteSpace=wrap;html=1;fixedSize=1;" vertex="1" parent="1">
          <mxGeometry x="180" y="400" width="120" height="60" as="geometry" />
        </mxCell>
        <mxCell id="uvVg4JDQQxN3Xbh5uwiV-14" style="edgeStyle=orthogonalEdgeStyle;rounded=0;orthogonalLoop=1;jettySize=auto;html=1;exitX=0.5;exitY=1;exitDx=0;exitDy=0;" edge="1" parent="1" source="uvVg4JDQQxN3Xbh5uwiV-13" target="uvVg4JDQQxN3Xbh5uwiV-15">
          <mxGeometry relative="1" as="geometry">
            <mxPoint x="240" y="570" as="targetPoint" />
          </mxGeometry>
        </mxCell>
        <mxCell id="uvVg4JDQQxN3Xbh5uwiV-13" value="更新至答卷表" style="rounded=1;whiteSpace=wrap;html=1;" vertex="1" parent="1">
          <mxGeometry x="180" y="490" width="120" height="60" as="geometry" />
        </mxCell>
        <mxCell id="uvVg4JDQQxN3Xbh5uwiV-15" value="结束" style="text;html=1;align=center;verticalAlign=middle;whiteSpace=wrap;rounded=0;" vertex="1" parent="1">
          <mxGeometry x="210" y="570" width="60" height="30" as="geometry" />
        </mxCell>
      </root>
    </mxGraphModel>
  </diagram>
</mxfile>
